<?xml version="1.0" encoding="iso-8859-1"?>
<!-- Generator: Adobe Illustrator 18.0.0, SVG Export Plug-In . SVG Version: 6.00 Build 0)  -->
<!DOCTYPE svg PUBLIC "-//W3C//DTD SVG 1.1//EN" "http://www.w3.org/Graphics/SVG/1.1/DTD/svg11.dtd">
<svg version="1.1" id="Capa_1" xmlns="http://www.w3.org/2000/svg" xmlns:xlink="http://www.w3.org/1999/xlink" x="0px" y="0px"
	 viewBox="0 0 86.483 71.343" style="enable-background:new 0 0 86.483 71.343;" xml:space="preserve">
<path d="M81.327,10.781v-0.093h-0.515H58.64H40.406V5.672c0-1.547-0.574-2.848-1.688-3.984C37.628,0.574,36.281,0,34.734,0H5.672
	C4.078,0,2.731,0.574,1.641,1.688C0.574,2.777,0,4.125,0,5.672v5.016v5.156v49.827c0,1.547,0.551,2.918,1.641,4.031
	c1.066,1.09,2.437,1.641,4.031,1.641h75.14c1.593,0,2.964-0.551,4.031-1.641c1.09-1.114,1.64-2.484,1.64-4.031V45.328v-2.297V28.219
	V16.312v-0.468C86.483,13.165,84.093,10.969,81.327,10.781z M5.203,5.672c0-0.328,0.141-0.469,0.469-0.469h29.062
	c0.188,0,0.516,0.281,0.516,0.469v5.016H5.203V5.672z M81.327,16.312v11.906v14.812v2.297v20.344c0,0.188-0.281,0.469-0.515,0.469
	H5.672c-0.328,0-0.469-0.141-0.469-0.469V15.844h76.124V16.312z"/>
<g>
</g>
<g>
</g>
<g>
</g>
<g>
</g>
<g>
</g>
<g>
</g>
<g>
</g>
<g>
</g>
<g>
</g>
<g>
</g>
<g>
</g>
<g>
</g>
<g>
</g>
<g>
</g>
<g>
</g>
</svg>
